<svg width="32" height="32" viewBox="0 0 32 32" xmlns="http://www.w3.org/2000/svg">
  <defs>
    <linearGradient id="buildingGradient" x1="0%" y1="0%" x2="100%" y2="100%">
      <stop offset="0%" style="stop-color:#4338ca;stop-opacity:1" />
      <stop offset="100%" style="stop-color:#6366f1;stop-opacity:1" />
    </linearGradient>
  </defs>
  
  <!-- Background circle -->
  <circle cx="16" cy="16" r="15" fill="url(#buildingGradient)" stroke="#3730a3" stroke-width="2"/>
  
  <!-- Main building -->
  <rect x="7.5" y="9" width="7" height="17" fill="#ffffff" opacity="0.9"/>
  
  <!-- Taller building -->
  <rect x="14.5" y="5" width="6" height="21" fill="#ffffff" opacity="0.95"/>
  
  <!-- Smaller building -->
  <rect x="20.5" y="13" width="4" height="13" fill="#ffffff" opacity="0.85"/>
  
  <!-- Building details/windows -->
  <rect x="9" y="11" width="1" height="1" fill="#4338ca" opacity="0.6"/>
  <rect x="11.5" y="11" width="1" height="1" fill="#4338ca" opacity="0.6"/>
  <rect x="9" y="14" width="1" height="1" fill="#4338ca" opacity="0.6"/>
  <rect x="11.5" y="14" width="1" height="1" fill="#4338ca" opacity="0.6"/>
  <rect x="9" y="17" width="1" height="1" fill="#4338ca" opacity="0.6"/>
  <rect x="11.5" y="17" width="1" height="1" fill="#4338ca" opacity="0.6"/>
  <rect x="9" y="20" width="1" height="1" fill="#4338ca" opacity="0.6"/>
  <rect x="11.5" y="20" width="1" height="1" fill="#4338ca" opacity="0.6"/>
  
  <rect x="16" y="8" width="1" height="1" fill="#4338ca" opacity="0.6"/>
  <rect x="18" y="8" width="1" height="1" fill="#4338ca" opacity="0.6"/>
  <rect x="16" y="11" width="1" height="1" fill="#4338ca" opacity="0.6"/>
  <rect x="18" y="11" width="1" height="1" fill="#4338ca" opacity="0.6"/>
  <rect x="16" y="14" width="1" height="1" fill="#4338ca" opacity="0.6"/>
  <rect x="18" y="14" width="1" height="1" fill="#4338ca" opacity="0.6"/>
  <rect x="16" y="17" width="1" height="1" fill="#4338ca" opacity="0.6"/>
  <rect x="18" y="17" width="1" height="1" fill="#4338ca" opacity="0.6"/>
  <rect x="16" y="20" width="1" height="1" fill="#4338ca" opacity="0.6"/>
  <rect x="18" y="20" width="1" height="1" fill="#4338ca" opacity="0.6"/>
  
  <rect x="22" y="15" width="1" height="1" fill="#4338ca" opacity="0.6"/>
  <rect x="22" y="18" width="1" height="1" fill="#4338ca" opacity="0.6"/>
  <rect x="22" y="21" width="1" height="1" fill="#4338ca" opacity="0.6"/>
</svg>